<?xml version="1.0" encoding="utf-8"?>
<!-- Generator: Adobe Illustrator 16.0.0, SVG Export Plug-In . SVG Version: 6.00 Build 0)  -->
<!DOCTYPE svg PUBLIC "-//W3C//DTD SVG 1.1//EN" "http://www.w3.org/Graphics/SVG/1.1/DTD/svg11.dtd">
<svg version="1.1" id="Layer_1" xmlns="http://www.w3.org/2000/svg" xmlns:xlink="http://www.w3.org/1999/xlink" x="0px" y="0px"
	 width="170px" height="60px" viewBox="0 0 170 60" enable-background="new 0 0 170 60" xml:space="preserve">
<g>
	<polygon fill="#78AC5E" points="65.804,49.565 65.804,50.12 64.234,50.12 64.234,54.224 63.596,54.224 63.596,50.12 62.025,50.12 
		62.025,49.565 	"/>
	<path fill="#78AC5E" d="M66.796,49.55h0.571v1.738c0.135-0.172,0.257-0.293,0.364-0.363c0.184-0.119,0.414-0.182,0.689-0.182
		c0.492,0,0.827,0.174,1.002,0.518c0.095,0.191,0.143,0.451,0.143,0.785v2.18h-0.587v-2.143c0-0.25-0.031-0.432-0.095-0.547
		c-0.104-0.188-0.298-0.281-0.584-0.281c-0.236,0-0.452,0.082-0.644,0.244c-0.193,0.164-0.289,0.471-0.289,0.924v1.803h-0.571V49.55
		z"/>
	<path fill="#78AC5E" d="M70.897,49.565h0.581v0.646h-0.581V49.565z M70.897,50.843h0.581v3.381h-0.581V50.843z"/>
	<path fill="#78AC5E" d="M72.828,50.827h0.542v0.482c0.161-0.197,0.331-0.342,0.511-0.428c0.18-0.086,0.38-0.131,0.6-0.131
		c0.482,0,0.809,0.168,0.978,0.504c0.092,0.186,0.138,0.447,0.138,0.791v2.18h-0.581v-2.143c0-0.205-0.031-0.373-0.092-0.502
		c-0.101-0.211-0.285-0.316-0.552-0.316c-0.135,0-0.246,0.016-0.333,0.041c-0.156,0.049-0.293,0.141-0.412,0.279
		c-0.095,0.113-0.157,0.229-0.186,0.346c-0.029,0.123-0.042,0.293-0.042,0.516v1.779h-0.572V50.827z"/>
	<polygon fill="#78AC5E" points="76.916,49.565 77.464,49.565 77.464,52.272 78.93,50.827 79.659,50.827 78.353,52.089 
		79.733,54.224 79.003,54.224 77.934,52.495 77.464,52.95 77.464,54.224 76.916,54.224 	"/>
	<path fill="#78AC5E" d="M80.665,49.565h0.58v0.646h-0.58V49.565z M80.665,50.843h0.58v3.381h-0.58V50.843z"/>
	<path fill="#78AC5E" d="M82.596,50.827h0.543v0.482c0.161-0.197,0.331-0.342,0.51-0.428c0.18-0.086,0.38-0.131,0.6-0.131
		c0.482,0,0.808,0.168,0.977,0.504c0.093,0.186,0.14,0.447,0.14,0.791v2.18h-0.581v-2.143c0-0.205-0.03-0.373-0.092-0.502
		c-0.101-0.211-0.285-0.316-0.552-0.316c-0.135,0-0.247,0.016-0.333,0.041c-0.157,0.049-0.294,0.141-0.412,0.279
		c-0.095,0.113-0.157,0.229-0.186,0.346c-0.028,0.123-0.042,0.293-0.042,0.516v1.779h-0.572V50.827z"/>
	<path fill="#78AC5E" d="M88.586,50.964c0.106,0.074,0.217,0.182,0.329,0.324V50.86h0.525v3.09c0,0.432-0.062,0.771-0.189,1.02
		c-0.236,0.463-0.683,0.691-1.337,0.691c-0.364,0-0.673-0.082-0.92-0.246c-0.25-0.164-0.389-0.42-0.418-0.768h0.58
		c0.028,0.15,0.082,0.27,0.164,0.35c0.128,0.129,0.331,0.193,0.605,0.193c0.436,0,0.722-0.154,0.856-0.465
		c0.079-0.18,0.115-0.506,0.109-0.973c-0.113,0.172-0.25,0.303-0.41,0.387s-0.371,0.127-0.635,0.127
		c-0.367,0-0.688-0.131-0.962-0.391c-0.276-0.262-0.413-0.693-0.413-1.297c0-0.57,0.138-1.014,0.416-1.334
		c0.275-0.32,0.61-0.479,1.003-0.479C88.155,50.767,88.389,50.833,88.586,50.964 M88.655,51.575
		c-0.173-0.201-0.393-0.303-0.66-0.303c-0.399,0-0.673,0.188-0.819,0.562c-0.079,0.203-0.117,0.467-0.117,0.793
		c0,0.381,0.078,0.674,0.231,0.871c0.154,0.201,0.362,0.301,0.624,0.301c0.407,0,0.695-0.184,0.861-0.557
		c0.092-0.207,0.14-0.451,0.14-0.732C88.915,52.091,88.827,51.78,88.655,51.575"/>
	<path fill="#78AC5E" d="M93.151,49.565h2.015c0.549,0,0.939,0.162,1.171,0.488c0.138,0.191,0.205,0.414,0.205,0.666
		c0,0.293-0.084,0.535-0.251,0.725c-0.087,0.098-0.211,0.189-0.374,0.271c0.239,0.092,0.417,0.193,0.536,0.309
		c0.209,0.201,0.313,0.482,0.313,0.84c0,0.301-0.094,0.572-0.283,0.814c-0.283,0.365-0.733,0.547-1.351,0.547h-1.981V49.565z
		 M94.93,51.536c0.27,0,0.479-0.039,0.629-0.113c0.234-0.115,0.352-0.326,0.352-0.627c0-0.305-0.124-0.508-0.375-0.617
		c-0.14-0.057-0.35-0.088-0.628-0.088H93.77v1.445H94.93z M95.144,53.687c0.391,0,0.67-0.113,0.836-0.336
		c0.104-0.143,0.156-0.312,0.156-0.516c0-0.338-0.152-0.57-0.458-0.691c-0.161-0.064-0.377-0.098-0.645-0.098H93.77v1.641H95.144z"
		/>
	<path fill="#78AC5E" d="M97.911,49.565h0.581v0.646h-0.581V49.565z M97.911,50.843h0.581v3.381h-0.581V50.843z"/>
	<path fill="#78AC5E" d="M101.731,50.964c0.107,0.074,0.217,0.182,0.329,0.324V50.86h0.525v3.09c0,0.432-0.063,0.771-0.189,1.02
		c-0.235,0.463-0.682,0.691-1.338,0.691c-0.364,0-0.671-0.082-0.92-0.246c-0.248-0.164-0.387-0.42-0.417-0.768h0.58
		c0.027,0.15,0.082,0.27,0.164,0.35c0.129,0.129,0.33,0.193,0.606,0.193c0.436,0,0.721-0.154,0.854-0.465
		c0.08-0.18,0.116-0.506,0.111-0.973c-0.114,0.172-0.251,0.303-0.411,0.387s-0.372,0.127-0.634,0.127
		c-0.367,0-0.689-0.131-0.965-0.391c-0.273-0.262-0.412-0.693-0.412-1.297c0-0.57,0.14-1.014,0.415-1.334
		c0.278-0.32,0.612-0.479,1.006-0.479C101.302,50.767,101.534,50.833,101.731,50.964 M101.801,51.575
		c-0.172-0.201-0.392-0.303-0.66-0.303c-0.398,0-0.673,0.188-0.82,0.562c-0.077,0.203-0.115,0.467-0.115,0.793
		c0,0.381,0.076,0.674,0.23,0.871c0.155,0.201,0.363,0.301,0.623,0.301c0.409,0,0.696-0.184,0.862-0.557
		c0.093-0.207,0.14-0.451,0.14-0.732C102.061,52.091,101.974,51.78,101.801,51.575"/>
	<polygon fill="#78AC5E" points="106.621,49.565 107.5,53.351 108.554,49.565 109.235,49.565 110.292,53.358 111.171,49.565 
		111.863,49.565 110.638,54.224 109.975,54.224 108.898,50.362 107.817,54.224 107.153,54.224 105.936,49.565 	"/>
	<path fill="#78AC5E" d="M112.854,49.565h0.581v0.646h-0.581V49.565z M112.854,50.843h0.581v3.381h-0.581V50.843z"/>
	<path fill="#78AC5E" d="M114.902,49.88h0.577v0.947h0.543v0.467h-0.543v2.219c0,0.117,0.039,0.197,0.121,0.236
		c0.043,0.023,0.116,0.037,0.221,0.037c0.028,0,0.057-0.002,0.089-0.004s0.068-0.004,0.112-0.01v0.451
		c-0.066,0.02-0.135,0.033-0.206,0.043c-0.071,0.008-0.147,0.014-0.229,0.014c-0.267,0-0.448-0.07-0.542-0.207
		c-0.096-0.135-0.143-0.311-0.143-0.529v-2.25h-0.461v-0.467h0.461V49.88z"/>
	<path fill="#78AC5E" d="M117.079,49.55h0.572v1.738c0.135-0.172,0.256-0.293,0.363-0.363c0.185-0.119,0.415-0.182,0.688-0.182
		c0.493,0,0.828,0.174,1.005,0.518c0.094,0.191,0.142,0.451,0.142,0.785v2.18h-0.587v-2.143c0-0.25-0.032-0.432-0.095-0.547
		c-0.104-0.188-0.3-0.281-0.584-0.281c-0.237,0-0.451,0.082-0.645,0.244c-0.193,0.164-0.288,0.471-0.288,0.924v1.803h-0.572V49.55z"
		/>
	<path fill="#78AC5E" d="M123.962,52.722c0.014,0.264,0.074,0.48,0.18,0.645c0.202,0.307,0.559,0.461,1.066,0.461
		c0.229,0,0.438-0.033,0.624-0.1c0.362-0.131,0.545-0.365,0.545-0.705c0-0.252-0.078-0.436-0.23-0.543
		c-0.156-0.104-0.4-0.195-0.731-0.275l-0.613-0.143c-0.398-0.094-0.681-0.195-0.847-0.309c-0.287-0.193-0.432-0.486-0.432-0.871
		c0-0.42,0.143-0.762,0.424-1.033c0.281-0.268,0.681-0.4,1.198-0.4c0.475,0,0.879,0.117,1.212,0.354
		c0.331,0.236,0.498,0.611,0.498,1.129h-0.594c-0.03-0.25-0.096-0.439-0.194-0.572c-0.185-0.244-0.498-0.365-0.939-0.365
		c-0.358,0-0.615,0.078-0.77,0.234c-0.156,0.156-0.234,0.338-0.234,0.547c0,0.227,0.092,0.393,0.276,0.502
		c0.12,0.064,0.395,0.15,0.82,0.254l0.635,0.146c0.304,0.072,0.54,0.17,0.706,0.297c0.287,0.219,0.43,0.533,0.43,0.947
		c0,0.518-0.182,0.885-0.549,1.109c-0.366,0.219-0.791,0.332-1.276,0.332c-0.565,0-1.007-0.148-1.327-0.445
		c-0.321-0.295-0.477-0.691-0.47-1.195H123.962z"/>
	<path fill="#78AC5E" d="M128.293,50.827h0.565v0.482c0.135-0.166,0.258-0.287,0.368-0.363c0.188-0.131,0.403-0.195,0.642-0.195
		c0.27,0,0.488,0.066,0.653,0.201c0.093,0.076,0.178,0.188,0.253,0.336c0.127-0.182,0.277-0.316,0.448-0.404
		s0.363-0.133,0.577-0.133c0.457,0,0.768,0.164,0.934,0.496c0.087,0.176,0.133,0.416,0.133,0.717v2.262h-0.594v-2.361
		c0-0.225-0.057-0.381-0.169-0.467c-0.114-0.084-0.252-0.125-0.415-0.125c-0.224,0-0.417,0.074-0.579,0.225
		c-0.162,0.148-0.242,0.4-0.242,0.752v1.977h-0.581v-2.219c0-0.229-0.027-0.396-0.083-0.504c-0.086-0.158-0.248-0.238-0.484-0.238
		c-0.215,0-0.412,0.084-0.588,0.25c-0.179,0.168-0.266,0.471-0.266,0.908v1.803h-0.572V50.827z"/>
	<path fill="#78AC5E" d="M136.015,52.167c0.132-0.016,0.221-0.07,0.265-0.164c0.024-0.049,0.037-0.123,0.037-0.219
		c0-0.195-0.068-0.336-0.207-0.424c-0.138-0.088-0.335-0.133-0.594-0.133c-0.298,0-0.509,0.08-0.633,0.242
		c-0.07,0.09-0.116,0.223-0.137,0.398h-0.532c0.01-0.42,0.146-0.713,0.407-0.877c0.26-0.164,0.562-0.248,0.908-0.248
		c0.398,0,0.723,0.076,0.973,0.23c0.246,0.152,0.37,0.391,0.37,0.709v1.959c0,0.059,0.011,0.107,0.037,0.145
		c0.024,0.033,0.075,0.051,0.154,0.051c0.023,0,0.053,0,0.085-0.004c0.031-0.004,0.064-0.008,0.1-0.014v0.422
		c-0.087,0.025-0.155,0.043-0.202,0.047c-0.046,0.008-0.108,0.01-0.189,0.01c-0.197,0-0.341-0.07-0.43-0.211
		c-0.046-0.072-0.078-0.178-0.098-0.311c-0.116,0.152-0.283,0.281-0.501,0.395s-0.458,0.168-0.719,0.168
		c-0.316,0-0.574-0.096-0.774-0.287c-0.199-0.189-0.299-0.43-0.299-0.719c0-0.312,0.098-0.557,0.295-0.729
		c0.197-0.176,0.455-0.281,0.774-0.32L136.015,52.167z M134.812,53.712c0.12,0.094,0.265,0.143,0.43,0.143
		c0.2,0,0.395-0.047,0.583-0.141c0.316-0.154,0.476-0.406,0.476-0.756v-0.461c-0.069,0.045-0.159,0.082-0.269,0.113
		c-0.111,0.029-0.218,0.051-0.323,0.062l-0.345,0.045c-0.207,0.027-0.362,0.072-0.469,0.131c-0.176,0.1-0.264,0.256-0.264,0.473
		C134.632,53.485,134.692,53.616,134.812,53.712"/>
	<rect x="138.312" y="49.565" fill="#78AC5E" width="0.571" height="4.658"/>
	<rect x="140.242" y="49.565" fill="#78AC5E" width="0.57" height="4.658"/>
	<path fill="#78AC5E" d="M144.554,49.565h1.864c0.632,0,1.121,0.229,1.471,0.682c0.311,0.41,0.467,0.936,0.467,1.576
		c0,0.496-0.093,0.943-0.275,1.342c-0.325,0.707-0.881,1.061-1.67,1.061h-1.856V49.565z M146.293,53.687
		c0.209,0,0.381-0.023,0.515-0.066c0.24-0.084,0.438-0.242,0.591-0.477c0.121-0.188,0.21-0.43,0.263-0.725
		c0.031-0.174,0.047-0.338,0.047-0.488c0-0.576-0.113-1.025-0.337-1.344c-0.224-0.32-0.585-0.48-1.083-0.48h-1.095v3.58H146.293z"/>
	<path fill="#78AC5E" d="M151.729,50.921c0.224,0.113,0.396,0.26,0.513,0.439c0.114,0.172,0.189,0.371,0.228,0.6
		c0.034,0.156,0.051,0.406,0.051,0.75h-2.471c0.01,0.344,0.091,0.621,0.241,0.83c0.152,0.209,0.386,0.314,0.702,0.314
		c0.295,0,0.532-0.102,0.709-0.297c0.099-0.113,0.167-0.248,0.208-0.398h0.563c-0.016,0.125-0.065,0.264-0.148,0.416
		c-0.084,0.154-0.177,0.281-0.279,0.377c-0.172,0.17-0.386,0.283-0.64,0.344c-0.136,0.031-0.291,0.051-0.462,0.051
		c-0.421,0-0.777-0.154-1.07-0.463c-0.291-0.309-0.438-0.738-0.438-1.293c0-0.545,0.147-0.986,0.441-1.33
		c0.296-0.34,0.68-0.51,1.153-0.51C151.271,50.751,151.504,50.808,151.729,50.921 M151.934,52.253
		c-0.024-0.246-0.078-0.443-0.161-0.592c-0.156-0.273-0.416-0.412-0.778-0.412c-0.259,0-0.478,0.096-0.652,0.285
		c-0.179,0.188-0.271,0.43-0.281,0.719H151.934z"/>
	<polygon fill="#78AC5E" points="154.011,50.827 154.919,53.593 155.864,50.827 156.488,50.827 155.211,54.226 154.602,54.226 
		153.348,50.827 	"/>
	<path fill="#78AC5E" d="M157.465,49.565h0.581v0.646h-0.581V49.565z M157.465,50.843h0.581v3.381h-0.581V50.843z"/>
	<path fill="#78AC5E" d="M161.642,51.007c0.241,0.189,0.384,0.506,0.433,0.963h-0.555c-0.034-0.211-0.11-0.383-0.231-0.521
		s-0.313-0.209-0.581-0.209c-0.362,0-0.623,0.178-0.779,0.533c-0.102,0.229-0.153,0.516-0.153,0.852c0,0.34,0.072,0.625,0.216,0.859
		c0.144,0.232,0.37,0.348,0.679,0.348c0.237,0,0.426-0.072,0.564-0.215c0.138-0.145,0.234-0.342,0.286-0.592h0.555
		c-0.062,0.449-0.222,0.777-0.475,0.988c-0.254,0.207-0.579,0.311-0.976,0.311c-0.442,0-0.798-0.164-1.062-0.486
		c-0.266-0.324-0.396-0.729-0.396-1.217c0-0.596,0.145-1.061,0.435-1.393c0.289-0.332,0.658-0.498,1.106-0.498
		C161.091,50.729,161.402,50.821,161.642,51.007"/>
	<path fill="#78AC5E" d="M165.232,50.921c0.225,0.113,0.396,0.26,0.515,0.439c0.111,0.172,0.188,0.371,0.226,0.6
		c0.034,0.156,0.05,0.406,0.05,0.75h-2.47c0.01,0.344,0.091,0.621,0.242,0.83s0.386,0.314,0.702,0.314
		c0.296,0,0.531-0.102,0.708-0.297c0.099-0.113,0.168-0.248,0.21-0.398h0.562c-0.015,0.125-0.063,0.264-0.147,0.416
		c-0.084,0.154-0.177,0.281-0.279,0.377c-0.172,0.17-0.386,0.283-0.64,0.344c-0.137,0.031-0.29,0.051-0.463,0.051
		c-0.421,0-0.776-0.154-1.068-0.463c-0.293-0.309-0.438-0.738-0.438-1.293c0-0.545,0.147-0.986,0.441-1.33
		c0.295-0.34,0.679-0.51,1.154-0.51C164.775,50.751,165.008,50.808,165.232,50.921 M165.437,52.253
		c-0.022-0.246-0.076-0.443-0.16-0.592c-0.155-0.273-0.415-0.412-0.777-0.412c-0.26,0-0.478,0.096-0.653,0.285
		c-0.177,0.188-0.271,0.43-0.28,0.719H165.437z"/>
	<path fill="#78AC5E" d="M167.573,53.159c0.017,0.191,0.065,0.336,0.146,0.439c0.146,0.184,0.401,0.275,0.764,0.275
		c0.216,0,0.406-0.049,0.569-0.139c0.164-0.092,0.248-0.234,0.248-0.428c0-0.145-0.066-0.256-0.197-0.332
		c-0.084-0.049-0.25-0.1-0.495-0.162l-0.462-0.113c-0.296-0.072-0.512-0.152-0.652-0.242c-0.248-0.154-0.373-0.369-0.373-0.641
		c0-0.322,0.117-0.582,0.351-0.779c0.236-0.201,0.552-0.301,0.947-0.301c0.521,0,0.894,0.152,1.123,0.453
		c0.144,0.189,0.213,0.395,0.208,0.613h-0.539c-0.01-0.129-0.057-0.244-0.139-0.35c-0.135-0.15-0.368-0.225-0.698-0.225
		c-0.221,0-0.389,0.043-0.502,0.125c-0.115,0.08-0.17,0.189-0.17,0.324c0,0.148,0.074,0.268,0.223,0.355
		c0.086,0.051,0.214,0.098,0.382,0.137l0.385,0.092c0.418,0.102,0.698,0.197,0.841,0.291c0.221,0.146,0.333,0.373,0.333,0.688
		c0,0.303-0.117,0.564-0.349,0.783c-0.232,0.221-0.587,0.332-1.062,0.332c-0.511,0-0.874-0.115-1.088-0.344
		c-0.212-0.23-0.327-0.516-0.342-0.854H167.573z"/>
	<path fill="#78AC5E" d="M26.476,2.56l24.922,8.854v32.6L26.527,57.317L1.502,43.81V11.464L26.476,2.56z M26.475,0.821l-0.549,0.197
		L0.952,9.922l-1.088,0.387v1.155V43.81v0.975l0.86,0.465l25.024,13.512l0.775,0.418l0.776-0.416l24.872-13.307l0.865-0.463v-0.98
		v-32.6v-1.156l-1.09-0.387L27.023,1.017L26.475,0.821z"/>
	<path fill="#58595B" d="M67.034,31.616v13.19h-3.711v-13.19h-1.314v-3.624h1.314V21.5c0-2.117,0.35-3.615,1.051-4.489
		c0.963-1.22,2.365-1.829,4.205-1.829c0.656,0,1.484,0.201,2.48,0.604v3.97l-0.379-0.207c-0.799-0.426-1.457-0.638-1.97-0.638
		c-0.656,0-1.101,0.248-1.331,0.742c-0.23,0.483-0.345,1.417-0.345,2.795v5.543h4.025v3.624H67.034z"/>
	<path fill="#58595B" d="M71.738,36.278c0-2.428,0.827-4.495,2.481-6.197c1.652-1.705,3.668-2.556,6.043-2.556
		c2.387,0,4.414,0.857,6.079,2.571c1.642,1.717,2.463,3.822,2.463,6.32c0,2.521-0.827,4.631-2.48,6.336
		c-1.665,1.691-3.708,2.535-6.126,2.535c-2.398,0-4.408-0.861-6.028-2.588C72.549,40.999,71.738,38.856,71.738,36.278
		 M75.516,36.349c0,1.68,0.428,3.008,1.282,3.986c0.875,0.992,2.031,1.484,3.465,1.484c1.446,0,2.602-0.488,3.465-1.467
		c0.865-0.979,1.299-2.287,1.299-3.918c0-1.635-0.434-2.941-1.299-3.92c-0.877-0.988-2.031-1.486-3.465-1.486
		c-1.412,0-2.558,0.498-3.432,1.486C75.954,33.503,75.516,34.782,75.516,36.349"/>
	<path fill="#58595B" d="M91.604,27.991h3.694v1.502c0.68-0.748,1.282-1.259,1.808-1.536c0.537-0.287,1.172-0.431,1.905-0.431
		c0.976,0,1.993,0.332,3.056,1.001l-1.691,3.555c-0.702-0.528-1.387-0.792-2.055-0.792c-2.016,0-3.022,1.599-3.022,4.799v8.717
		h-3.694V27.991z"/>
	<path fill="#58595B" d="M103.585,27.991h3.694v1.554c0.713-0.781,1.318-1.311,1.824-1.588c0.536-0.287,1.208-0.431,2.02-0.431
		c1.806,0,3.235,0.828,4.287,2.485c1.16-1.657,2.731-2.485,4.715-2.485c3.602,0,5.404,2.295,5.404,6.887v10.393h-3.713v-9.34
		c0-1.609-0.186-2.75-0.559-3.417c-0.383-0.682-1.014-1.02-1.889-1.02c-1.018,0-1.761,0.402-2.226,1.208
		c-0.468,0.808-0.699,2.103-0.699,3.886v8.682h-3.712v-9.287c0-2.993-0.82-4.489-2.464-4.489c-1.04,0-1.799,0.41-2.274,1.226
		c-0.476,0.818-0.715,2.107-0.715,3.869v8.682h-3.694V27.991z"/>
	<path fill="#58595B" d="M128.77,21.931c0-0.933,0.315-1.726,0.945-2.383c0.63-0.655,1.389-0.983,2.275-0.983
		c0.92,0,1.688,0.322,2.307,0.967c0.619,0.644,0.928,1.443,0.928,2.399c0,0.955-0.312,1.768-0.943,2.436
		c-0.63,0.667-1.394,1.001-2.291,1.001c-0.877,0-1.631-0.34-2.267-1.02C129.088,23.67,128.77,22.864,128.77,21.931 M129.066,27.37
		h5.862v17.436h-5.862V27.37z"/>
	<path fill="#58595B" d="M138.157,21.931c0-0.933,0.312-1.726,0.944-2.383c0.628-0.655,1.386-0.983,2.273-0.983
		c0.92,0,1.689,0.322,2.309,0.967c0.617,0.644,0.928,1.443,0.928,2.399c0,0.955-0.314,1.768-0.945,2.436
		c-0.63,0.667-1.395,1.001-2.291,1.001c-0.876,0-1.631-0.34-2.266-1.02C138.475,23.67,138.157,22.864,138.157,21.931 M138.452,27.37
		h5.862v17.436h-5.862V27.37z"/>
	<polygon fill="#58595B" points="147.706,44.806 147.706,18.047 153.454,18.047 153.454,34.985 159.482,27.37 166.743,27.37 
		159.285,35.761 167.416,44.806 159.712,44.806 153.454,37.054 153.454,44.806 	"/>
	<polygon fill="#97CB60" points="3.201,12.704 26.39,20.694 26.39,55.308 3.201,42.81 	"/>
	<polygon fill="#78AC5E" points="49.578,12.704 26.39,20.694 26.39,55.308 49.578,42.81 	"/>
	<polygon fill="#8ABD61" points="26.581,20.885 49.578,12.704 26.581,4.527 3.201,12.704 	"/>
	<polygon fill="#FFFFFF" points="31.039,33.63 33.771,32.354 33.771,42.796 31.039,44.257 	"/>
	<polygon fill="#FFFFFF" points="35.693,31.486 38.428,30.209 38.428,40.649 35.693,42.112 	"/>
	<polygon fill="#FFFFFF" points="39.981,39.845 42.197,38.651 42.197,34.462 45.212,37.132 47.373,35.944 44.083,33.118 
		47.373,26.32 44.636,27.599 42.367,32.18 42.492,23.758 39.981,24.572 	"/>
	<path fill="#FFFFFF" d="M31.049,29.511c-0.459,1.046-0.223,2.161,0.528,2.489c0.748,0.33,1.727-0.256,2.183-1.302
		c0.459-1.045,0.221-2.159-0.529-2.487C32.481,27.883,31.503,28.466,31.049,29.511"/>
	<path fill="#FFFFFF" d="M35.48,27.527c-0.457,1.047-0.219,2.16,0.529,2.488c0.749,0.326,1.727-0.253,2.185-1.302
		c0.457-1.047,0.221-2.159-0.53-2.487C36.918,25.898,35.938,26.479,35.48,27.527"/>
	<path fill="#FFFFFF" d="M7.146,20.796L7.073,39.081l9.305,4.551l4.946,2.406V26.701L7.146,20.796z M9.446,38.267
		c-0.613-0.305-1.11-1.105-1.119-1.797c-0.002-0.691,0.488-1.018,1.102-0.734c0.613,0.289,1.118,1.096,1.118,1.801
		C10.549,38.239,10.059,38.567,9.446,38.267 M9.422,34.522c-0.616-0.283-1.117-1.068-1.121-1.758
		c-0.003-0.692,0.489-1.036,1.104-0.772c0.614,0.271,1.116,1.061,1.124,1.759C10.533,34.46,10.036,34.802,9.422,34.522
		 M19.876,42.931l-8.584-4.039l-0.01-1.902l8.591,3.746L19.876,42.931z M19.868,39.214l-8.596-4.133l-0.009-1.903l8.605,3.836
		L19.868,39.214z M9.341,31.001c-0.613-0.282-1.113-1.066-1.121-1.761c-0.007-0.688,0.49-1.032,1.104-0.767
		c0.616,0.264,1.118,1.057,1.122,1.76C10.45,30.94,9.956,31.282,9.341,31.001 M19.791,35.241l-8.6-3.904l-0.009-1.903l8.605,3.607
		L19.791,35.241z M20.214,30.843L8.278,25.597l-0.014-1.852l11.944,4.901L20.214,30.843z"/>
	<path fill="#FFFFFF" d="M21.118,46.579c-0.146,0-0.29-0.033-0.432-0.102L7.125,39.913c-0.42-0.205-0.722-0.688-0.722-1.156V21.072
		c0-0.53,0.384-0.933,0.897-0.933c0.129,0,0.26,0.031,0.385,0.082l13.548,5.712c0.442,0.186,0.766,0.671,0.766,1.151v18.57
		C21.999,46.183,21.618,46.579,21.118,46.579 M7.741,38.722l12.913,6.248V27.147L7.741,21.702V38.722z"/>
</g>
<g>
</g>
<g>
</g>
<g>
</g>
<g>
</g>
<g>
</g>
<g>
</g>
</svg>
